0 FILE BIOTAIX_PipettRobot.ldr
0 
0 Name: New Model.ldr
0 Author: 
0 STEP
0 STEP
0 !LEOCAD GROUP BEGIN Group #4
1 0 28.8323 -272 232.6099 -1 0 0 0 1 0 0 0 -1 3673.dat
1 0 248.8322 -272 232.6099 -1 0 0 0 1 0 0 0 -1 3673.dat
1 4 38.8323 -288 232.61 -1 0 0 0 1 0 0 0 -1 32054.dat
1 4 238.8322 -288 232.61 1 0 0 0 1 0 0 0 1 32054.dat
0 !LEOCAD GROUP END
0 !LEOCAD GROUP BEGIN Group #3
1 7 25.8656 -123.4615 -123.5984 0 0 1 0 1 0 -1 0 0 64179.dat
1 7 25.8656 -123.4615 -123.5984 0 0 1 0 1 0 -1 0 0 64179.dat
1 7 165.8656 -123.4615 -123.5984 0 0 1 0 1 0 -1 0 0 64179.dat
1 7 205.8656 -147.4615 -83.5984 0 0 1 0 1 0 -1 0 0 32523.dat
1 7 205.8656 -147.4615 -163.5984 0 0 1 0 1 0 -1 0 0 32523.dat
1 7 85.8656 -147.4615 -83.5984 0 0 1 0 1 0 -1 0 0 32523.dat
1 7 25.8656 -147.4615 -163.5984 0 0 1 0 1 0 -1 0 0 32523.dat
1 7 -14.1344 -107.4615 -83.5984 0 0 -1 0 1 0 1 0 0 32523.dat
1 7 -34.1344 -83.4615 -103.5984 -1 0 0 0 1 0 0 0 -1 32523.dat
1 112 225.8655 -84.4615 -119.9984 0 0 -1 -1 0 0 0 1 0 32556.dat
1 112 105.8656 -120.4615 -119.9984 -1 0 0 0 -1 0 0 0 1 32556.dat
1 112 225.8655 -126.4615 -159.9984 0 0 1 -1 0 0 0 -1 0 32556.dat
1 112 225.8655 -126.4615 -79.9984 0 0 1 -1 0 0 0 -1 0 32556.dat
1 112 185.8656 -126.4615 -159.9984 0 0 1 -1 0 0 0 -1 0 32556.dat
1 112 -34.1344 -86.4615 -119.9984 0 0 1 1 0 0 0 1 0 32556.dat
1 112 -34.1344 -103.4615 -85.5984 0 0 1 1 0 0 0 1 0 32556.dat
1 0 105.8656 -133.4615 -81.5984 0 0 1 1 0 0 0 1 0 3673.dat
1 0 125.8656 -133.4615 62.4016 0 0 1 1 0 0 0 1 0 3673.dat
1 0 125.8656 -133.4615 22.4016 0 0 1 1 0 0 0 1 0 3673.dat
1 0 5.8656 -113.4615 -81.5984 0 0 1 1 0 0 0 1 0 3673.dat
1 0 45.8656 -133.4615 -161.5984 0 0 1 1 0 0 0 1 0 3673.dat
1 0 85.8656 -133.4615 -81.5984 0 0 1 1 0 0 0 1 0 3673.dat
1 0 5.8656 -133.4615 -161.5984 0 0 1 1 0 0 0 1 0 3673.dat
1 0 185.8656 -133.4615 -81.5984 0 0 1 1 0 0 0 1 0 3673.dat
1 7 95.8656 -123.4615 -103.5984 1 0 0 0 1 0 0 0 1 3673.dat
1 7 95.8656 -123.4615 -143.5984 1 0 0 0 1 0 0 0 1 3673.dat
1 0 95.8656 -120.4615 -139.9984 -1 0 0 0 -1 0 0 0 1 3673.dat
1 0 95.8656 -120.4615 -99.9984 -1 0 0 0 -1 0 0 0 1 3673.dat
1 0 -34.1344 -116.4615 -159.9984 0 0 1 1 0 0 0 1 0 3673.dat
1 10030 125.8656 -130 -98.0292 0 0 1 1 0 0 0 1 0 3749.dat
1 10030 125.8656 -130 -138.0292 0 0 1 1 0 0 0 1 0 3749.dat
1 10030 -34.1344 -32.4616 -159.9984 0 0 -1 0 -1 0 -1 0 0 3749.dat
1 10030 225.8655 -32.4616 -159.9984 0 0 -1 0 -1 0 -1 0 0 3749.dat
1 10030 -34.1344 -32.4615 -79.9984 0 0 1 0 -1 0 1 0 0 3749.dat
1 10030 225.8655 -32.4615 -79.9984 0 0 1 0 -1 0 1 0 0 3749.dat
1 7 225.8655 -104.4615 -79.9984 -1 0 0 0 1 0 0 0 -1 32526.dat
1 7 -34.1344 -104.4615 -99.9984 1 0 0 0 -1 0 0 0 -1 32140.dat
1 7 -38.1344 -64.4615 -149.9984 0 1 0 0 0 1 1 0 0 32184.dat
1 7 221.8655 -64.4615 -149.9984 0 1 0 0 0 1 1 0 0 32184.dat
1 7 -38.1344 -64.4615 -119.9984 0 1 0 0 0 1 1 0 0 32184.dat
1 7 221.8655 -64.4615 -119.9984 0 1 0 0 0 1 1 0 0 32184.dat
1 7 -38.1344 -64.4615 -89.9984 0 1 0 0 0 1 1 0 0 32184.dat
1 7 221.8655 -64.4615 -89.9984 0 1 0 0 0 1 1 0 0 32184.dat
1 7 125.8656 -122.4615 -121.9984 0 0 1 -1 0 0 0 -1 0 32184.dat
1 7 -14.1344 -64.4615 -119.9984 0 0 1 0 -1 0 1 0 0 3705.dat
1 7 245.8656 -64.4615 -119.9984 0 0 1 0 -1 0 1 0 0 3705.dat
1 7 -54.1344 -64.4615 -119.9984 0 0 1 0 -1 0 1 0 0 3705.dat
1 7 205.8656 -64.4615 -119.9984 0 0 1 0 -1 0 1 0 0 3705.dat
1 24 -34.1344 -34.4615 -151.9984 0 0 1 -1 0 0 0 -1 0 15100.dat
1 24 225.8655 -34.4616 -151.9984 0 0 1 -1 0 0 0 -1 0 15100.dat
1 24 -34.1344 -34.4615 -87.9984 0 0 -1 -1 0 0 0 1 0 15100.dat
1 24 225.8655 -34.4616 -87.9984 0 0 -1 -1 0 0 0 1 0 15100.dat
1 24 -34.1344 -32.4615 -169.9984 -1 0 0 0 -1 0 0 0 1 4185bc01.dat
1 24 225.8655 -32.4615 -169.9984 -1 0 0 0 -1 0 0 0 1 4185bc01.dat
1 24 -34.1344 -32.4615 -69.9984 1 0 0 0 -1 0 0 0 -1 4185bc01.dat
1 24 225.8655 -32.4615 -69.9985 1 0 0 0 -1 0 0 0 -1 4185bc01.dat
1 24 125.8656 -144 -36.0292 -1 0 0 0 1 0 0 0 -1 32525.dat
0 !LEOCAD GROUP END
0 !LEOCAD GROUP BEGIN Group #4
1 7 -21.1677 -346 16.61 -1 0 0 0 0 1 0 1 0 32278.dat
1 7 298.8322 -346 16.61 -1 0 0 0 0 1 0 1 0 32278.dat
1 6 296.8322 -502 54.61 0 0 1 1 0 0 0 1 0 32009.dat
1 120 199.3822 -526 152.61 0 0 -1 0 1 0 1 0 0 15458.dat
1 15 42.8322 -504 232.61 0 0 1 0 -1 0 1 0 0 49130.dat
1 15 218.8322 -504 232.61 0 1 0 0 0 1 1 0 0 49130.dat
1 30085 218.8322 -544 12.61 1 0 0 0 1 0 0 0 1 3649.dat
1 7 188.8322 -576 -5.39 0 0 -1 1 0 0 0 -1 0 32316.dat
1 7 148.8322 -512 -25.39 -1 0 0 0 0 -1 0 -1 0 32524.dat
1 7 38.8322 -506 54.61 0 0 -1 1 0 0 0 -1 0 32524.dat
1 7 38.8322 -504 70.61 0 0 -1 1 0 0 0 -1 0 32523.dat
1 7 298.8322 -444 38.61 -1 0 0 0 0 -1 0 -1 0 32523.dat
1 7 198.8322 -504 70.61 0 0 -1 1 0 0 0 -1 0 32523.dat
1 6 114.8322 -564 72.61 0 1 0 0 0 1 1 0 0 14720.dat
1 7 88.8322 -624 32.61 0 0 1 -1 0 0 0 -1 0 32184.dat
1 120 158.8322 -504 152.61 0 0 -1 0 1 0 1 0 0 64179.dat
1 120 228.8322 -516 142.61 0 1 0 0 0 1 1 0 0 94148.dat
1 24 118.8322 -504 92.61 0 0 -1 -1 0 0 0 1 0 32525.dat
1 7 78.8323 -504 72.61 0 0 -1 0 -1 0 -1 0 0 6536.dat
1 7 158.8322 -504 72.61 0 0 -1 0 -1 0 -1 0 0 6536.dat
1 7 96.8322 -522 112.61 0 1 0 1 0 0 0 0 -1 32526.dat
1 7 136.8322 -522 112.61 0 1 0 1 0 0 0 0 -1 32526.dat
1 4 84.8323 -504 8.61 0 -1 0 0 0 -1 1 0 0 32123b.dat
1 4 84.8323 -544 8.61 0 -1 0 0 0 -1 1 0 0 32123b.dat
1 4 92.8322 -754 18.61 0 -1 0 0 0 -1 1 0 0 32123b.dat
1 4 220.8322 -544 -1.39 0 -1 0 -1 0 0 0 0 -1 32123b.dat
1 4 220.8322 -544 48.61 0 -1 0 -1 0 0 0 0 -1 32123b.dat
1 23 38.8323 -504 72.61 0 0 -1 0 1 0 1 0 0 32556.dat
1 23 58.8322 -504 72.61 0 0 -1 0 1 0 1 0 0 32556.dat
1 23 178.8322 -504 72.61 0 0 -1 0 1 0 1 0 0 32556.dat
1 23 218.8322 -504 72.61 0 0 -1 0 1 0 1 0 0 32556.dat
1 23 198.8322 -504 52.61 0 0 -1 0 1 0 1 0 0 32556.dat
1 23 118.8323 -520 52.61 -1 0 0 0 1 0 0 0 -1 32556.dat
1 23 118.8322 -520 32.61 -1 0 0 0 1 0 0 0 -1 32556.dat
1 23 298.8322 -448 32.61 0 0 -1 0 1 0 1 0 0 32556.dat
1 23 298.8322 -424 32.61 0 0 -1 0 1 0 1 0 0 32556.dat
1 23 88.8323 -520 -7.39 -1 0 0 0 1 0 0 0 -1 32556.dat
1 23 118.8322 -504 32.61 -1 0 0 0 1 0 0 0 -1 32556.dat
1 23 118.8322 -520 92.61 -1 0 0 0 1 0 0 0 -1 32556.dat
1 0 28.8323 -272 232.6099 -1 0 0 0 1 0 0 0 -1 3673.dat
1 0 248.8322 -264 232.6099 -1 0 0 0 1 0 0 0 -1 3673.dat
1 0 88.8322 -520 72.61 -1 0 0 0 1 0 0 0 -1 3673.dat
1 0 98.8322 -608 52.61 -1 0 0 0 1 0 0 0 -1 3673.dat
1 0 238.8322 -504 42.61 0 0 1 0 1 0 -1 0 0 3673.dat
1 0 158.8322 -504 102.61 0 0 1 0 1 0 -1 0 0 3673.dat
1 0 198.8322 -504 102.61 0 0 1 0 1 0 -1 0 0 3673.dat
1 0 208.8322 -576 2.61 0 0 1 0 1 0 -1 0 0 3673.dat
1 0 -1.1678 -504 42.61 0 0 1 0 1 0 -1 0 0 3673.dat
1 0 -21.1677 -488 22.61 0 0 1 0 1 0 -1 0 0 3673.dat
1 0 -21.1677 -464 22.61 0 0 1 0 1 0 -1 0 0 3673.dat
1 0 -21.1677 -504 42.61 0 0 1 0 1 0 -1 0 0 3673.dat
1 0 148.8322 -576 -17.39 0 0 1 0 1 0 -1 0 0 3673.dat
1 0 228.8322 -576 2.61 0 0 1 0 1 0 -1 0 0 3673.dat
1 0 118.8322 -504 102.61 0 0 1 0 1 0 -1 0 0 3673.dat
1 0 118.8322 -504 202.61 0 0 1 0 1 0 -1 0 0 3673.dat
1 0 82.8322 -504 222.61 0 0 1 0 1 0 -1 0 0 3673.dat
1 0 218.8322 -504 222.61 0 0 1 0 1 0 -1 0 0 3673.dat
1 0 42.8323 -504 222.61 0 0 1 0 1 0 -1 0 0 3673.dat
1 0 178.8322 -504 222.61 0 0 1 0 1 0 -1 0 0 3673.dat
1 0 158.8322 -504 202.61 0 0 1 0 1 0 -1 0 0 3673.dat
1 0 198.8322 -504 202.61 0 0 1 0 1 0 -1 0 0 3673.dat
1 0 148.8322 -520 72.61 -1 0 0 0 1 0 0 0 -1 3673.dat
1 5 148.8322 -456 -37.39 0 0 -1 0 -1 0 -1 0 0 3749.dat
1 5 -21.1677 -448 22.61 0 0 1 0 -1 0 1 0 0 3749.dat
1 5 98.8322 -528 -27.39 1 0 0 0 1 0 0 0 1 3749.dat
1 16 88.8322 -528 12.61 1 0 0 0 1 0 0 0 1 87082.dat
1 7 114.8322 -524 -27.39 0 -1 0 1 0 0 0 0 1 32140.dat
1 7 218.8322 -544 30.61 -1 0 0 0 0 1 0 1 0 60484.dat
0 !LEOCAD PIECE PIVOT  0 -8 0 1 0 0 0 1 0 0 0 1
1 25 78.8323 -504 72.61 0 0 -1 0 1 0 1 0 0 4519.dat
0 !LEOCAD PIECE PIVOT  0 -8 0 1 0 0 0 1 0 0 0 1
1 25 158.8322 -504 52.61 0 0 -1 0 1 0 1 0 0 4519.dat
1 7 103.8322 -352 -52.39 0 1 0 1 0 0 0 0 -1 42003.dat
1 7 103.8322 -372 -52.39 0 1 0 1 0 0 0 0 -1 42003.dat
1 7 88.8322 -608 32.61 0 0 1 1 0 0 0 1 0 42003.dat
1 7 68.8323 -526 -11.39 0 0 -1 -1 0 0 0 1 0 42003.dat
1 7 88.8322 -526 -27.39 0 0 -1 -1 0 0 0 1 0 42003.dat
1 25 88.8323 -562 10.61 0 0 -1 -1 0 0 0 1 0 3706.dat
1 120 94.8322 -618 32.61 0 1 0 1 0 0 0 0 -1 6225.dat
1 120 78.8322 -618 32.61 0 -1 0 1 0 0 0 0 1 6225.dat
1 25 88.8322 -690 16.61 0 0 -1 1 0 0 0 -1 0 44294.dat
1 25 218.8322 -544 42.61 0 0 -1 0 1 0 1 0 0 32073.dat
1 7 191.3822 -550 132.61 0 1 0 -1 0 0 0 0 1 2985c01.dat
1 4 218.8322 -544 82.61 1 0 0 0 1 0 0 0 1 3713.dat
1 120 113.8322 -364 -48.39 -1 0 0 0 0 1 0 1 0 94148.dat
1 120 113.8322 -364 -56.39 -1 0 0 0 0 -1 0 -1 0 94148.dat
1 24 24.8323 -390 232.61 0 1 0 0 0 1 1 0 0 41239.dat
1 24 240.8322 -382 232.6099 0 1 0 0 0 1 1 0 0 41239.dat
1 4 38.8323 -288 232.61 -1 0 0 0 1 0 0 0 -1 32054.dat
1 4 238.8322 -280 232.61 1 0 0 0 1 0 0 0 1 32054.dat
1 7 -21.1677 -444 38.61 1 0 0 0 0 -1 0 1 0 32140.dat
1 24 118.8322 -504 212.61 0 0 -1 -1 0 0 0 1 0 32525.dat
1 25 86 -448 -50 0 1 0 -1 0 0 0 0 1 60485.dat
1 25 86 -268 -50 0 1 0 -1 0 0 0 0 1 60485.dat
0 !LEOCAD GROUP END
0 !LEOCAD GROUP BEGIN Group #1
1 7 114.2562 -455.3215 -130.1639 0 1 0 0 0 1 1 0 0 32526.dat
1 7 114.2562 -395.3215 -90.164 0 1 0 0 0 -1 -1 0 0 32526.dat
1 7 78.2562 -297.3215 -130.1639 1 0 0 0 1 0 0 0 1 32526.dat
1 120 2.2562 -593.3214 -130.7139 0 1 0 1 0 0 0 0 -1 32316.dat
1 120 2.2562 -593.3215 -70.714 0 1 0 0 0 -1 -1 0 0 32316.dat
1 7 74.2562 -415.3214 -130.1639 0 -1 0 0 0 1 -1 0 0 32316.dat
1 7 74.2562 -415.3215 -90.164 0 -1 0 0 0 1 -1 0 0 32316.dat
1 120 68.2561 -593.3214 -130.714 0 0 1 1 0 0 0 1 0 32123b.dat
1 7 114.2562 -595.3214 -140.1639 0 -1 0 1 0 0 0 0 1 32123b.dat
1 7 78.2561 -355.3215 -131.8307 0 0 1 1 0 0 0 1 0 32123b.dat
1 7 78.2562 -315.3216 -143.8306 0 -1 0 1 0 0 0 0 1 32123b.dat
1 7 78.2562 -315.3216 -73.8307 0 -1 0 1 0 0 0 0 1 32123b.dat
1 7 128.2562 -355.3215 -131.8306 0 0 1 1 0 0 0 1 0 32123b.dat
1 7 128.2562 -355.3215 -91.8307 0 0 1 1 0 0 0 1 0 32123b.dat
1 7 78.2561 -355.3215 -91.8306 0 0 1 1 0 0 0 1 0 32123b.dat
1 7 75.4561 -333.3216 -129.8307 -1 0 0 0 1 0 0 0 -1 6536.dat
1 7 75.4562 -333.3216 -89.8307 -1 0 0 0 1 0 0 0 -1 6536.dat
1 7 90.2562 -553.3214 -54.164 -1 0 0 0 0 1 0 1 0 42003.dat
1 120 54.2561 -535.3214 -70.714 -1 0 0 0 1 0 0 0 -1 42003.dat
1 120 54.2562 -628.8214 -94.214 -1 0 0 0 0 -1 0 -1 0 42003.dat
1 7 74.2562 -553.3215 -129.8307 0 0 -1 0 1 0 1 0 0 42003.dat
1 7 74.2561 -553.3215 -89.8307 0 0 -1 0 1 0 1 0 0 42003.dat
1 7 72.2561 -275.3215 -110.1639 0 0 -1 1 0 0 0 -1 0 48989.dat
1 7 114.2562 -595.3215 -130.1639 1 0 0 0 1 0 0 0 1 32184.dat
1 7 114.2562 -595.3214 -90.164 1 0 0 0 1 0 0 0 1 32184.dat
1 7 114.2562 -595.3214 -110.1639 0 -1 0 1 0 0 0 0 1 10928.dat
1 120 100.2561 -593.3214 -50.164 0 0 1 1 0 0 0 1 0 6589.dat
1 7 114.2562 -595.3215 -70.164 0 -1 0 1 0 0 0 0 1 6589.dat
1 7 98.2561 -535.3215 -110.164 0 -1 0 1 0 0 0 0 1 3743.dat
1 7 98.2561 -615.3214 -110.164 0 -1 0 1 0 0 0 0 1 3743.dat
1 7 98.2562 -455.3215 -110.1639 0 -1 0 1 0 0 0 0 1 3743.dat
1 120 86.2561 -593.3215 -90.164 1 0 0 0 1 0 0 0 1 32556.dat
1 7 89.4561 -419.3215 -129.8307 -1 0 0 0 -1 0 0 0 1 32556.dat
1 7 89.4561 -419.3215 -89.8306 -1 0 0 0 -1 0 0 0 1 32556.dat
1 7 89.4561 -395.3215 -129.8307 -1 0 0 0 -1 0 0 0 1 32556.dat
1 7 89.4562 -395.3214 -89.8307 -1 0 0 0 -1 0 0 0 1 32556.dat
1 7 89.4562 -379.3215 -129.8306 -1 0 0 0 -1 0 0 0 1 32556.dat
1 7 89.4562 -379.3215 -89.8307 -1 0 0 0 -1 0 0 0 1 32556.dat
1 7 89.4562 -459.3214 -129.8307 -1 0 0 0 -1 0 0 0 1 32556.dat
1 7 89.4562 -459.3215 -89.8307 -1 0 0 0 -1 0 0 0 1 32556.dat
1 7 90.2562 -565.3214 -50.164 0 -1 0 1 0 0 0 0 1 3673.dat
1 7 90.2562 -565.3214 -30.164 0 -1 0 1 0 0 0 0 1 3673.dat
1 7 114.2562 -305.3214 -50.164 0 -1 0 1 0 0 0 0 1 3673.dat
1 7 98.2562 -305.3214 -50.164 0 -1 0 1 0 0 0 0 1 3673.dat
1 120 66.2561 -437.3215 -90.1641 1 0 0 0 1 0 0 0 1 3673.dat
1 120 66.2561 -437.3215 -130.1639 1 0 0 0 1 0 0 0 1 3673.dat
1 120 -5.7438 -573.3214 -70.714 -1 0 0 0 1 0 0 0 -1 3673.dat
1 120 -5.7438 -597.3215 -70.7139 -1 0 0 0 1 0 0 0 -1 3673.dat
1 120 -5.7438 -597.3214 -90.7141 -1 0 0 0 1 0 0 0 -1 3673.dat
1 120 -5.7438 -597.3214 -110.714 -1 0 0 0 1 0 0 0 -1 3673.dat
1 120 -5.7439 -613.3214 -70.7139 -1 0 0 0 1 0 0 0 -1 3673.dat
1 120 58.2562 -533.3215 -80.714 0 1 0 0 0 1 1 0 0 3673.dat
1 120 58.2562 -618.8214 -96.214 0 1 0 1 0 0 0 0 -1 3673.dat
1 120 58.2562 -513.3215 -80.714 0 1 0 0 0 1 1 0 0 3673.dat
1 120 58.2562 -618.8214 -116.214 0 1 0 1 0 0 0 0 -1 3673.dat
1 7 74.2562 -285.3214 -130.1639 0 -1 0 1 0 0 0 0 1 3673.dat
1 7 74.2562 -285.3214 -90.1639 0 -1 0 1 0 0 0 0 1 3673.dat
1 7 83.4562 -535.3214 -129.8307 -1 0 0 0 -1 0 0 0 1 3673.dat
1 7 83.4562 -535.3214 -89.8306 -1 0 0 0 -1 0 0 0 1 3673.dat
1 7 83.4562 -551.3215 -129.8306 -1 0 0 0 -1 0 0 0 1 3673.dat
1 7 83.4562 -551.3215 -89.8307 -1 0 0 0 -1 0 0 0 1 3673.dat
1 7 100.2561 -613.3214 -130.1639 1 0 0 0 1 0 0 0 1 3749.dat
1 7 100.2561 -613.3214 -90.164 1 0 0 0 1 0 0 0 1 3749.dat
1 7 100.2561 -573.3215 -130.1639 1 0 0 0 1 0 0 0 1 3749.dat
1 7 100.2561 -573.3214 -90.1639 1 0 0 0 1 0 0 0 1 3749.dat
1 7 79.4562 -335.3215 -129.8307 -1 0 0 0 -1 0 0 0 1 3749.dat
1 7 79.4562 -335.3215 -89.8307 -1 0 0 0 -1 0 0 0 1 3749.dat
1 7 93.4561 -515.3215 -129.8307 0 -1 0 0 0 1 -1 0 0 32525.dat
1 7 93.4562 -515.3215 -89.8307 0 -1 0 0 0 1 -1 0 0 32525.dat
1 7 86.2562 -569.3214 9.836 1 0 0 0 1 0 0 0 1 32524.dat
1 7 93.4561 -335.3215 -129.8307 0 -1 0 0 0 -1 1 0 0 32524.dat
1 7 93.4562 -335.3215 -89.8307 0 -1 0 0 0 -1 1 0 0 32524.dat
1 7 114.2562 -355.3215 -110.1639 0 -1 0 1 0 0 0 0 1 32523.dat
1 7 80.2562 -455.3215 -112.1639 1 0 0 0 0 -1 0 1 0 32278.dat
1 7 100.2562 -355.3215 -130.1639 1 0 0 0 1 0 0 0 1 4519.dat
1 7 100.2561 -355.3215 -90.164 1 0 0 0 1 0 0 0 1 4519.dat
1 7 74.2562 -315.3214 -110.1639 0 -1 0 0 0 -1 1 0 0 3705.dat
1 7 74.2562 -575.3215 -100.164 0 -1 0 0 0 -1 1 0 0 3705.dat
1 7 114.2562 -595.3214 -120.164 0 -1 0 0 0 1 -1 0 0 32073.dat
1 7 90.2562 -535.3215 -110.164 0 -1 0 1 0 0 0 0 1 60479.dat
1 120 58.2562 -513.3215 -110.7139 0 1 0 1 0 0 0 0 -1 15458.dat
1 4 106.2562 -393.3214 -110.1639 1 0 0 0 1 0 0 0 1 87989.dat
1 120 28.2562 -589.3214 -130.7139 -1 0 0 0 1 0 0 0 -1 44294.dat
1 120 28.2562 -629.3214 -70.714 -1 0 0 0 1 0 0 0 -1 44294.dat
1 120 28.2562 -557.3215 -70.714 -1 0 0 0 1 0 0 0 -1 44294.dat
1 120 -13.7438 -593.3214 -110.714 0 1 0 -1 0 0 0 0 1 60484.dat
1 120 30.2562 -593.3214 -30.7141 0 0 -1 1 0 0 0 -1 0 2985c01.dat
1 120 66.2562 -593.3215 -54.164 0 0 -1 1 0 0 0 -1 0 92906.dat
1 7 114.2562 -311.2142 -45.4704 0 -1 0 0 0 -1 1 0 0 42003.dat
1 7 70 -576 -60 0 0 -1 0 -1 0 -1 0 0 6536.dat
0 !LEOCAD GROUP END
0 !LEOCAD GROUP BEGIN Group #5
1 7 240 -148 226 0 -1 0 0 0 -1 1 0 0 32278.dat
1 7 2 -148 226 0 -1 0 0 0 -1 1 0 0 32278.dat
1 7 80 -168 -10 0 0 1 1 0 0 0 1 0 32278.dat
1 24 -20 -128 -30 1 0 0 0 0 -1 0 1 0 41239.dat
1 24 300 -128 -30 1 0 0 0 0 -1 0 1 0 41239.dat
1 120 100 -48 174 0 0 -1 1 0 0 0 -1 0 64179.dat
1 120 100 -48 294 0 0 -1 1 0 0 0 -1 0 64179.dat
1 7 -40 -171 169 0 -1 0 0 0 1 -1 0 0 42003.dat
1 7 195 -123 254 -1 0 0 0 0 1 0 1 0 42003.dat
1 7 -40 -171 189 0 -1 0 0 0 1 -1 0 0 42003.dat
1 7 215 -123 254 -1 0 0 0 0 1 0 1 0 42003.dat
1 120 -50 -175 181 1 0 0 0 -1 0 0 0 -1 94148.dat
1 120 207 -127 264 0 0 -1 0 -1 0 -1 0 0 94148.dat
1 120 176 -61 281 0 1 0 -1 0 0 0 0 1 94148.dat
1 120 176 -61 191 0 1 0 -1 0 0 0 0 1 94148.dat
1 120 -50 -167 181 1 0 0 0 1 0 0 0 1 94148.dat
1 120 207 -119 264 0 0 1 0 1 0 -1 0 0 94148.dat
1 15 262 -144 190 0 -1 0 1 0 0 0 0 1 49130.dat
1 15 262 -104 190 0 -1 0 1 0 0 0 0 1 49130.dat
1 30085 300 -120 150 1 0 0 0 1 0 0 0 1 10928.dat
1 30085 300 -120 210 1 0 0 0 1 0 0 0 1 6589.dat
1 30085 280 -120 230 0 0 1 0 1 0 -1 0 0 6589.dat
1 25 300 -120 180 0 0 1 0 1 0 -1 0 0 3705.dat
1 25 250 -120 230 -1 0 0 0 1 0 0 0 -1 3705.dat
1 4 300 -120 200 1 0 0 0 1 0 0 0 1 32123b.dat
1 4 300 -64 20 1 0 0 0 1 0 0 0 1 32123b.dat
1 4 270 -120 230 0 0 1 0 1 0 -1 0 0 32123b.dat
1 4 40 -64 30 1 0 0 0 1 0 0 0 1 32123b.dat
1 4 300 -120 190 1 0 0 0 1 0 0 0 1 3713.dat
1 4 300 -64 70 1 0 0 0 1 0 0 0 1 3713.dat
1 4 260 -120 230 0 0 1 0 1 0 -1 0 0 3713.dat
1 7 84 -188 -50 0 1 0 -1 0 0 0 0 1 6536.dat
1 7 -18 -168 230 1 0 0 0 1 0 0 0 1 32184.dat
1 7 142 -104 280 1 0 0 0 1 0 0 0 1 32184.dat
1 7 142 -104 200 1 0 0 0 1 0 0 0 1 32184.dat
1 23 -10 -8 230 1 0 0 0 1 0 0 0 1 32556.dat
1 23 240 -8 230 -1 0 0 0 1 0 0 0 -1 32556.dat
1 23 300 -248 -10 0 0 1 0 1 0 -1 0 0 32556.dat
1 23 -20 -248 -10 0 0 1 0 1 0 -1 0 0 32556.dat
1 23 300 -208 -10 0 0 1 0 1 0 -1 0 0 32556.dat
1 23 300 -104 -10 0 0 1 0 1 0 -1 0 0 32556.dat
1 23 300 -88 -10 0 0 1 0 1 0 -1 0 0 32556.dat
1 23 -20 -208 -10 0 0 1 0 1 0 -1 0 0 32556.dat
1 23 60 -104 -10 0 0 1 0 1 0 -1 0 0 32556.dat
1 0 40 -8 160 0 0 1 0 1 0 -1 0 0 3673.dat
1 0 40 -88 160 0 0 1 0 1 0 -1 0 0 3673.dat
1 0 80 -8 180 0 0 1 0 1 0 -1 0 0 3673.dat
1 0 80 -8 280 0 0 1 0 1 0 -1 0 0 3673.dat
1 0 120 -8 180 0 0 1 0 1 0 -1 0 0 3673.dat
1 0 120 -8 280 0 0 1 0 1 0 -1 0 0 3673.dat
1 0 160 -8 180 0 0 1 0 1 0 -1 0 0 3673.dat
1 0 160 -8 280 0 0 1 0 1 0 -1 0 0 3673.dat
1 0 180 -168 -20 0 0 1 0 1 0 -1 0 0 3673.dat
1 0 80 -168 -20 0 0 1 0 1 0 -1 0 0 3673.dat
1 0 80 -104 -20 0 0 1 0 1 0 -1 0 0 3673.dat
1 0 220 -104 -20 0 0 1 0 1 0 -1 0 0 3673.dat
1 0 240 -104 -20 0 0 1 0 1 0 -1 0 0 3673.dat
1 0 260 -104 -20 0 0 1 0 1 0 -1 0 0 3673.dat
1 0 20 -104 0 0 0 1 0 1 0 -1 0 0 3673.dat
1 0 -20 -8 -40 0 0 1 0 1 0 -1 0 0 3673.dat
1 0 -20 -48 -40 0 0 1 0 1 0 -1 0 0 3673.dat
1 0 100 -168 -20 0 0 1 0 1 0 -1 0 0 3673.dat
1 0 100 -184 -40 0 0 1 0 1 0 -1 0 0 3673.dat
1 0 200 -168 -20 0 0 1 0 1 0 -1 0 0 3673.dat
1 0 220 -168 -20 0 0 1 0 1 0 -1 0 0 3673.dat
1 0 260 -168 -20 0 0 1 0 1 0 -1 0 0 3673.dat
1 0 300 -152 -20 0 0 1 0 1 0 -1 0 0 3673.dat
1 5 150 -88 280 -1 0 0 0 1 0 0 0 -1 3749.dat
1 5 150 -88 200 -1 0 0 0 1 0 0 0 -1 3749.dat
1 5 150 -120 280 -1 0 0 0 1 0 0 0 -1 3749.dat
1 5 150 -120 200 -1 0 0 0 1 0 0 0 -1 3749.dat
1 5 240 -168 -20 0 0 -1 0 1 0 1 0 0 3749.dat
1 5 40 -168 -20 0 0 1 0 1 0 -1 0 0 3749.dat
1 7 40 -48 154 1 0 0 0 0 1 0 -1 0 32316.dat
1 7 163 -84 277 0 1 0 0 0 1 1 0 0 32316.dat
1 7 163 -84 197 0 1 0 0 0 1 1 0 0 32316.dat
1 7 220 -170 -30 0 0 1 -1 0 0 0 -1 0 32316.dat
1 7 300 -122 170 1 0 0 0 0 1 0 -1 0 32524.dat
1 7 20 -104 -10 0 0 -1 1 0 0 0 -1 0 32524.dat
1 24 160 -104 -26 0 0 -1 -1 0 0 0 1 0 32525.dat
1 326 120 -8 230 1 0 0 0 1 0 0 0 1 64782.dat
1 7 40 -60 10 1 0 0 0 0 -1 0 1 0 60484.dat
1 7 -20 -48 -50 1 0 0 0 0 1 0 -1 0 60484.dat
1 7 220 -104 -6 0 0 1 1 0 0 0 1 0 32526.dat
1 7 240 -168 -8 0 0 1 1 0 0 0 1 0 32140.dat
1 7 40 -168 -32 0 0 1 -1 0 0 0 -1 0 32140.dat
1 7 300 -228 -10 1 0 0 0 0 -1 0 1 0 32523.dat
1 7 -20 -228 -10 1 0 0 0 0 -1 0 1 0 32523.dat
1 4 -18 -168 230 0 0 -1 0 1 0 1 0 0 32054.dat
1 4 300 -168 170 0 0 -1 0 1 0 1 0 0 32054.dat
1 4 300 -168 -10 0 0 1 0 1 0 -1 0 0 32054.dat
1 4 -20 -168 -10 0 0 1 0 1 0 -1 0 0 32054.dat
1 0 310 -112 50 0 0 1 0 1 0 -1 0 0 57518.dat
1 0 280 -112 50 0 0 1 0 1 0 -1 0 0 57518.dat
1 0 250 -112 50 0 0 1 0 1 0 -1 0 0 57518.dat
1 0 220 -112 50 0 0 1 0 1 0 -1 0 0 57518.dat
1 0 190 -112 50 0 0 1 0 1 0 -1 0 0 57518.dat
1 0 160 -112 50 0 0 1 0 1 0 -1 0 0 57518.dat
1 0 130 -112 50 0 0 1 0 1 0 -1 0 0 57518.dat
1 0 100 -112 50 0 0 1 0 1 0 -1 0 0 57518.dat
1 0 70 -112 50 0 0 1 0 1 0 -1 0 0 57518.dat
1 0 40 -112 50 0 0 1 0 1 0 -1 0 0 57518.dat
1 0 10 -112 50 0 0.866025 0.5 0 0.5 -0.866025 -1 0 0 57518.dat
1 0 -5 -86.0192 50 0 1 0 0 0 -1 -1 0 0 57518.dat
1 0 -5 -56.0192 50 0 0.866025 -0.5 0 -0.5 -0.866025 -1 0 0 57518.dat
1 0 280 -8 50 0 0 -1 0 -1 0 -1 0 0 57518.dat
1 0 250 -8 50 0 0 -1 0 -1 0 -1 0 0 57518.dat
1 0 220 -8 50 0 0 -1 0 -1 0 -1 0 0 57518.dat
1 0 190 -8 50 0 0 -1 0 -1 0 -1 0 0 57518.dat
1 0 160 -8 50 0 0 -1 0 -1 0 -1 0 0 57518.dat
1 0 130 -8 50 0 0 -1 0 -1 0 -1 0 0 57518.dat
1 0 100 -8 50 0 0 -1 0 -1 0 -1 0 0 57518.dat
1 0 70 -8 50 0 0 -1 0 -1 0 -1 0 0 57518.dat
1 0 40 -8 50 0 0 -1 0 -1 0 -1 0 0 57518.dat
1 0 10 -8 50 0 0 -1 0 -1 0 -1 0 0 57518.dat
1 0 2 -28.7846 50 0 0.5 -0.866025 0 -0.866025 -0.5 -1 0 0 57518.dat
1 0 312.6795 -6 50 0 -0.5 -0.866025 0 -0.866025 0.5 -1 0 0 57518.dat
1 0 359.641 -71.3013 50 0 -0.866025 0.5 0 0.5 0.866025 -1 0 0 57518.dat
1 0 351.641 -41.3013 50 0 -1 0 0 0 1 -1 0 0 57518.dat
1 0 339.5166 -18.3013 50 0 -0.866025 -0.5 0 -0.5 0.866025 -1 0 0 57518.dat
1 0 340 -96 50 0 -0.5 0.866025 0 0.866025 0.5 -1 0 0 57518.dat
1 0 40 -64 50 1 0 0 0 1 0 0 0 1 57519.dat
1 0 300 -64 50 1 0 0 0 1 0 0 0 1 57519.dat
1 25 40 -64 70 0 0 1 0 1 0 -1 0 0 60485.dat
1 25 -20 -168 90 0 0 1 0 1 0 -1 0 0 60485.dat
1 25 300 -64 90 0 0 1 0 1 0 -1 0 0 60485.dat
1 30085 300 -64 150 1 0 0 0 1 0 0 0 1 3649.dat
1 25 300 -168 80 0 0 -1 0 1 0 1 0 0 3707.dat
1 25 -20 -168 200 0 0 -1 0 1 0 1 0 0 3704.dat
1 120 161.3065 -120 232.1073 0 0 -1 0 -1 0 -1 0 0 92906.dat
1 120 124.7564 -92 232.1072 0 0 -1 0 -1 0 -1 0 0 2985c01.dat
1 7 300 -82 10 1 0 0 0 0 -1 0 1 0 32523.dat
0 !LEOCAD GROUP END
0 NOFILE
0 FILE Submodel_SyringeScaler-Basis.ldr
0 
0 Name: Submodel_SyringeScaler-Basis.ldr
0 Author: 
1 7 250 -32 -50 0 0 1 0 -1 0 1 0 0 32526.dat
1 7 310 -32 -10 0 0 -1 0 -1 0 -1 0 0 32526.dat
1 7 408 4 -50 0 1 0 -1 0 0 0 0 1 32526.dat
1 7 290 8 -50 0 0 1 0 1 0 -1 0 0 32316.dat
1 7 290 8 -10 0 0 1 0 1 0 -1 0 0 32316.dat
1 7 110 -32 -60 1 0 0 0 1 0 0 0 1 32123b.dat
1 7 350 4 -51.6667 1 0 0 0 0 -1 0 1 0 32123b.dat
1 7 390 4 -63.6667 1 0 0 0 1 0 0 0 1 32123b.dat
1 7 390 4 6.3333 1 0 0 0 1 0 0 0 1 32123b.dat
1 7 350 -46 -51.6667 1 0 0 0 0 -1 0 1 0 32123b.dat
1 7 350 -46 -11.6667 1 0 0 0 0 -1 0 1 0 32123b.dat
1 7 350 4 -11.6667 1 0 0 0 0 -1 0 1 0 32123b.dat
1 7 372 6.8 -49.6667 0 1 0 1 0 0 0 0 -1 6536.dat
1 7 372 6.8 -9.6667 0 1 0 1 0 0 0 0 -1 6536.dat
1 7 152 8 -49.6667 0 1 0 0 0 1 1 0 0 42003.dat
1 7 152 8 -9.6667 0 1 0 0 0 1 1 0 0 42003.dat
1 7 430 10 -30 1 0 0 0 0 1 0 -1 0 48989.dat
1 7 110 -32 -50 0 1 0 -1 0 0 0 0 1 32184.dat
1 7 110 -32 -10 0 1 0 -1 0 0 0 0 1 32184.dat
1 7 110 -32 -30 1 0 0 0 1 0 0 0 1 10928.dat
1 7 110 -32 0 1 0 0 0 1 0 0 0 1 6589.dat
1 7 170 -16 -30 1 0 0 0 1 0 0 0 1 3743.dat
1 7 90 -16 -30 1 0 0 0 1 0 0 0 1 3743.dat
1 7 250 -16 -30 1 0 0 0 1 0 0 0 1 3743.dat
1 7 286 -7.2 -49.6667 0 -1 0 1 0 0 0 0 1 32556.dat
1 7 286 -7.2 -9.6667 0 -1 0 1 0 0 0 0 1 32556.dat
1 7 310 -7.2 -49.6667 0 -1 0 1 0 0 0 0 1 32556.dat
1 7 310 -7.2 -9.6667 0 -1 0 1 0 0 0 0 1 32556.dat
1 7 326 -7.2 -49.6667 0 -1 0 1 0 0 0 0 1 32556.dat
1 7 326 -7.2 -9.6667 0 -1 0 1 0 0 0 0 1 32556.dat
1 7 246 -7.2 -49.6667 0 -1 0 1 0 0 0 0 1 32556.dat
1 7 246 -7.2 -9.6667 0 -1 0 1 0 0 0 0 1 32556.dat
1 7 420 8 -50 1 0 0 0 1 0 0 0 1 3673.dat
1 7 420 8 -10 1 0 0 0 1 0 0 0 1 3673.dat
1 7 170 -1.2 -49.6667 0 -1 0 1 0 0 0 0 1 3673.dat
1 7 170 -1.2 -9.6667 0 -1 0 1 0 0 0 0 1 3673.dat
1 7 154 -1.2 -49.6667 0 -1 0 1 0 0 0 0 1 3673.dat
1 7 154 -1.2 -9.6667 0 -1 0 1 0 0 0 0 1 3673.dat
1 7 92 -18 -50 0 1 0 -1 0 0 0 0 1 3749.dat
1 7 92 -18 -10 0 1 0 -1 0 0 0 0 1 3749.dat
1 7 132 -18 -50 0 1 0 -1 0 0 0 0 1 3749.dat
1 7 132 -18 -10 0 1 0 -1 0 0 0 0 1 3749.dat
1 7 370 2.8 -49.6667 0 -1 0 1 0 0 0 0 1 3749.dat
1 7 370 2.8 -9.6667 0 -1 0 1 0 0 0 0 1 3749.dat
1 7 190 -11.2 -49.6667 0 0 1 0 1 0 -1 0 0 32525.dat
1 7 190 -11.2 -9.6667 0 0 1 0 1 0 -1 0 0 32525.dat
1 7 370 -11.2 -49.6667 0 0 -1 0 1 0 1 0 0 32524.dat
1 7 370 -11.2 -9.6667 0 0 -1 0 1 0 1 0 0 32524.dat
1 7 350 -32 -30 1 0 0 0 1 0 0 0 1 32523.dat
1 7 250 2 -32 0 0 -1 -1 0 0 0 1 0 32278.dat
1 7 350 -18 -50 0 1 0 -1 0 0 0 0 1 4519.dat
1 7 350 -18 -10 0 1 0 -1 0 0 0 0 1 4519.dat
1 7 390 8 -30 0 0 -1 0 1 0 1 0 0 3705.dat
1 7 130 8 -30 0 0 -1 0 1 0 1 0 0 3705.dat
1 7 110 -32 -40 0 0 1 0 1 0 -1 0 0 32073.dat
1 7 170 -8 -30 1 0 0 0 1 0 0 0 1 60479.dat
1 7 312 -24 -30 0 1 0 -1 0 0 0 0 1 87989.dat
0 NOFILE
0 FILE Submodel_SyringeScaler_Motor.ldr
0 
0 Name: Submodel_SyringeScaler_Motor.ldr
0 Author: 
1 7 120 -14 119.45 1 0 0 0 -1 0 0 0 -1 32316.dat
1 7 120 -14 179.45 0 0 -1 0 -1 0 -1 0 0 32316.dat
1 7 120 -80 119.45 1 0 0 0 0 -1 0 1 0 32123b.dat
1 7 178 -66 179.45 0 1 0 1 0 0 0 0 -1 42003.dat
1 7 84.5 -66 155.95 0 0 -1 1 0 0 0 -1 0 42003.dat
1 7 120 -112 200 1 0 0 0 0 -1 0 1 0 6589.dat
1 7 120 -98 160 0 1 0 -1 0 0 0 0 1 32556.dat
1 7 276 -78 160 0 1 0 -1 0 0 0 0 1 3673.dat
1 7 276 -78 120 0 1 0 -1 0 0 0 0 1 3673.dat
1 7 140 -6 179.45 0 1 0 1 0 0 0 0 -1 3673.dat
1 7 116 -6 179.45 0 1 0 1 0 0 0 0 -1 3673.dat
1 7 116 -6 159.45 0 1 0 1 0 0 0 0 -1 3673.dat
1 7 116 -6 139.45 0 1 0 1 0 0 0 0 -1 3673.dat
1 7 100 -6 179.45 0 1 0 1 0 0 0 0 -1 3673.dat
1 7 180 -70 169.45 0 0 1 0 -1 0 1 0 0 3673.dat
1 7 94.5 -70 153.95 1 0 0 0 -1 0 0 0 -1 3673.dat
1 7 200 -70 169.45 0 0 1 0 -1 0 1 0 0 3673.dat
1 7 94.5 -70 133.95 1 0 0 0 -1 0 0 0 -1 3673.dat
1 120 200 -70 139.45 1 0 0 0 -1 0 0 0 -1 15458.dat
1 7 124 -40 119.45 0 1 0 1 0 0 0 0 -1 44294.dat
1 7 84 -40 179.45 0 1 0 1 0 0 0 0 -1 44294.dat
1 7 156 -40 179.45 0 1 0 1 0 0 0 0 -1 44294.dat
1 7 120 2 139.45 -1 0 0 0 -1 0 0 0 1 60484.dat
1 7 120 -42 219.45 1 0 0 0 0 1 0 -1 0 2985c01.dat
1 7 120 -78 196 1 0 0 0 0 1 0 -1 0 92906.dat
0 NOFILE
0 FILE Submodel_SyringeScaler-All.ldr
0 
0 Name: Submodel_SyringeScaler-All.ldr
0 Author: 
0 !LEOCAD GROUP BEGIN Group #1
1 7 114.2562 -455.3215 -130.1639 0 1 0 0 0 1 1 0 0 32526.dat
1 7 114.2562 -395.3215 -90.164 0 1 0 0 0 -1 -1 0 0 32526.dat
1 7 78.2562 -297.3215 -130.1639 1 0 0 0 1 0 0 0 1 32526.dat
1 120 2.2562 -593.3214 -130.7139 0 1 0 1 0 0 0 0 -1 32316.dat
1 120 2.2562 -593.3215 -70.714 0 1 0 0 0 -1 -1 0 0 32316.dat
1 7 74.2562 -415.3214 -130.1639 0 -1 0 0 0 1 -1 0 0 32316.dat
1 7 74.2562 -415.3215 -90.164 0 -1 0 0 0 1 -1 0 0 32316.dat
1 120 68.2561 -593.3214 -130.714 0 0 1 1 0 0 0 1 0 32123b.dat
1 7 114.2562 -595.3214 -140.1639 0 -1 0 1 0 0 0 0 1 32123b.dat
1 7 78.2561 -355.3215 -131.8307 0 0 1 1 0 0 0 1 0 32123b.dat
1 7 78.2562 -315.3216 -143.8306 0 -1 0 1 0 0 0 0 1 32123b.dat
1 7 78.2562 -315.3216 -73.8307 0 -1 0 1 0 0 0 0 1 32123b.dat
1 7 128.2562 -355.3215 -131.8306 0 0 1 1 0 0 0 1 0 32123b.dat
1 7 128.2562 -355.3215 -91.8307 0 0 1 1 0 0 0 1 0 32123b.dat
1 7 78.2561 -355.3215 -91.8306 0 0 1 1 0 0 0 1 0 32123b.dat
1 7 75.4561 -333.3216 -129.8307 -1 0 0 0 1 0 0 0 -1 6536.dat
1 7 75.4562 -333.3216 -89.8307 -1 0 0 0 1 0 0 0 -1 6536.dat
1 7 90.2562 -553.3214 -54.164 -1 0 0 0 0 1 0 1 0 42003.dat
1 120 54.2561 -535.3214 -70.714 -1 0 0 0 1 0 0 0 -1 42003.dat
1 120 54.2562 -628.8214 -94.214 -1 0 0 0 0 -1 0 -1 0 42003.dat
1 7 74.2562 -553.3215 -129.8307 0 0 -1 0 1 0 1 0 0 42003.dat
1 7 74.2561 -553.3215 -89.8307 0 0 -1 0 1 0 1 0 0 42003.dat
1 7 72.2561 -275.3215 -110.1639 0 0 -1 1 0 0 0 -1 0 48989.dat
1 7 114.2562 -595.3215 -130.1639 1 0 0 0 1 0 0 0 1 32184.dat
1 7 114.2562 -595.3214 -90.164 1 0 0 0 1 0 0 0 1 32184.dat
1 7 114.2562 -595.3214 -110.1639 0 -1 0 1 0 0 0 0 1 10928.dat
1 120 100.2561 -593.3214 -50.164 0 0 1 1 0 0 0 1 0 6589.dat
1 7 114.2562 -595.3215 -70.164 0 -1 0 1 0 0 0 0 1 6589.dat
1 7 98.2561 -535.3215 -110.164 0 -1 0 1 0 0 0 0 1 3743.dat
1 7 98.2561 -615.3214 -110.164 0 -1 0 1 0 0 0 0 1 3743.dat
1 7 98.2562 -455.3215 -110.1639 0 -1 0 1 0 0 0 0 1 3743.dat
1 120 86.2561 -593.3215 -90.164 1 0 0 0 1 0 0 0 1 32556.dat
1 7 89.4561 -419.3215 -129.8307 -1 0 0 0 -1 0 0 0 1 32556.dat
1 7 89.4561 -419.3215 -89.8306 -1 0 0 0 -1 0 0 0 1 32556.dat
1 7 89.4561 -395.3215 -129.8307 -1 0 0 0 -1 0 0 0 1 32556.dat
1 7 89.4562 -395.3214 -89.8307 -1 0 0 0 -1 0 0 0 1 32556.dat
1 7 89.4562 -379.3215 -129.8306 -1 0 0 0 -1 0 0 0 1 32556.dat
1 7 89.4562 -379.3215 -89.8307 -1 0 0 0 -1 0 0 0 1 32556.dat
1 7 89.4562 -459.3214 -129.8307 -1 0 0 0 -1 0 0 0 1 32556.dat
1 7 89.4562 -459.3215 -89.8307 -1 0 0 0 -1 0 0 0 1 32556.dat
1 7 90.2562 -565.3214 -50.164 0 -1 0 1 0 0 0 0 1 3673.dat
1 7 90.2562 -565.3214 -30.164 0 -1 0 1 0 0 0 0 1 3673.dat
1 7 114.2562 -305.3214 -50.164 0 -1 0 1 0 0 0 0 1 3673.dat
1 7 98.2562 -305.3214 -50.164 0 -1 0 1 0 0 0 0 1 3673.dat
1 120 66.2561 -437.3215 -90.1641 1 0 0 0 1 0 0 0 1 3673.dat
1 120 66.2561 -437.3215 -130.1639 1 0 0 0 1 0 0 0 1 3673.dat
1 120 -5.7438 -573.3214 -70.714 -1 0 0 0 1 0 0 0 -1 3673.dat
1 120 -5.7438 -597.3215 -70.7139 -1 0 0 0 1 0 0 0 -1 3673.dat
1 120 -5.7438 -597.3214 -90.7141 -1 0 0 0 1 0 0 0 -1 3673.dat
1 120 -5.7438 -597.3214 -110.714 -1 0 0 0 1 0 0 0 -1 3673.dat
1 120 -5.7439 -613.3214 -70.7139 -1 0 0 0 1 0 0 0 -1 3673.dat
1 120 58.2562 -533.3215 -80.714 0 1 0 0 0 1 1 0 0 3673.dat
1 120 58.2562 -618.8214 -96.214 0 1 0 1 0 0 0 0 -1 3673.dat
1 120 58.2562 -513.3215 -80.714 0 1 0 0 0 1 1 0 0 3673.dat
1 120 58.2562 -618.8214 -116.214 0 1 0 1 0 0 0 0 -1 3673.dat
1 7 74.2562 -285.3214 -130.1639 0 -1 0 1 0 0 0 0 1 3673.dat
1 7 74.2562 -285.3214 -90.1639 0 -1 0 1 0 0 0 0 1 3673.dat
1 7 83.4562 -535.3214 -129.8307 -1 0 0 0 -1 0 0 0 1 3673.dat
1 7 83.4562 -535.3214 -89.8306 -1 0 0 0 -1 0 0 0 1 3673.dat
1 7 83.4562 -551.3215 -129.8306 -1 0 0 0 -1 0 0 0 1 3673.dat
1 7 83.4562 -551.3215 -89.8307 -1 0 0 0 -1 0 0 0 1 3673.dat
1 7 100.2561 -613.3214 -130.1639 1 0 0 0 1 0 0 0 1 3749.dat
1 7 100.2561 -613.3214 -90.164 1 0 0 0 1 0 0 0 1 3749.dat
1 7 100.2561 -573.3215 -130.1639 1 0 0 0 1 0 0 0 1 3749.dat
1 7 100.2561 -573.3214 -90.1639 1 0 0 0 1 0 0 0 1 3749.dat
1 7 79.4562 -335.3215 -129.8307 -1 0 0 0 -1 0 0 0 1 3749.dat
1 7 79.4562 -335.3215 -89.8307 -1 0 0 0 -1 0 0 0 1 3749.dat
1 7 93.4561 -515.3215 -129.8307 0 -1 0 0 0 1 -1 0 0 32525.dat
1 7 93.4562 -515.3215 -89.8307 0 -1 0 0 0 1 -1 0 0 32525.dat
1 7 86.2562 -569.3214 9.836 1 0 0 0 1 0 0 0 1 32524.dat
1 7 93.4561 -335.3215 -129.8307 0 -1 0 0 0 -1 1 0 0 32524.dat
1 7 93.4562 -335.3215 -89.8307 0 -1 0 0 0 -1 1 0 0 32524.dat
1 7 114.2562 -355.3215 -110.1639 0 -1 0 1 0 0 0 0 1 32523.dat
1 7 80.2562 -455.3215 -112.1639 1 0 0 0 0 -1 0 1 0 32278.dat
1 7 100.2562 -355.3215 -130.1639 1 0 0 0 1 0 0 0 1 4519.dat
1 7 100.2561 -355.3215 -90.164 1 0 0 0 1 0 0 0 1 4519.dat
1 7 74.2562 -315.3214 -110.1639 0 -1 0 0 0 -1 1 0 0 3705.dat
1 7 74.2562 -575.3215 -100.164 0 -1 0 0 0 -1 1 0 0 3705.dat
1 7 114.2562 -595.3214 -120.164 0 -1 0 0 0 1 -1 0 0 32073.dat
1 7 90.2562 -535.3215 -110.164 0 -1 0 1 0 0 0 0 1 60479.dat
1 120 58.2562 -513.3215 -110.7139 0 1 0 1 0 0 0 0 -1 15458.dat
1 4 106.2562 -393.3214 -110.1639 1 0 0 0 1 0 0 0 1 87989.dat
1 120 28.2562 -589.3214 -130.7139 -1 0 0 0 1 0 0 0 -1 44294.dat
1 120 28.2562 -629.3214 -70.714 -1 0 0 0 1 0 0 0 -1 44294.dat
1 120 28.2562 -557.3215 -70.714 -1 0 0 0 1 0 0 0 -1 44294.dat
1 120 -13.7438 -593.3214 -110.714 0 1 0 -1 0 0 0 0 1 60484.dat
1 120 30.2562 -593.3214 -30.7141 0 0 -1 1 0 0 0 -1 0 2985c01.dat
1 120 66.2562 -593.3215 -54.164 0 0 -1 1 0 0 0 -1 0 92906.dat
1 7 114.2562 -311.2142 -45.4704 0 -1 0 0 0 -1 1 0 0 42003.dat
1 7 70 -576 -60 0 0 -1 0 -1 0 -1 0 0 6536.dat
0 !LEOCAD GROUP END
0 NOFILE
0 FILE Submodel_SampleWagon.ldr
0 
0 Name: Submodel_SampleWagon.ldr
0 Author: 
0 !LEOCAD GROUP BEGIN Group #3
1 7 25.8656 -123.4615 -123.5984 0 0 1 0 1 0 -1 0 0 64179.dat
1 7 25.8656 -123.4615 -123.5984 0 0 1 0 1 0 -1 0 0 64179.dat
1 7 165.8656 -123.4615 -123.5984 0 0 1 0 1 0 -1 0 0 64179.dat
1 7 205.8656 -147.4615 -83.5984 0 0 1 0 1 0 -1 0 0 32523.dat
1 7 205.8656 -147.4615 -163.5984 0 0 1 0 1 0 -1 0 0 32523.dat
1 7 85.8656 -147.4615 -83.5984 0 0 1 0 1 0 -1 0 0 32523.dat
1 7 25.8656 -147.4615 -163.5984 0 0 1 0 1 0 -1 0 0 32523.dat
1 7 -14.1344 -107.4615 -83.5984 0 0 -1 0 1 0 1 0 0 32523.dat
1 7 -34.1344 -83.4615 -103.5984 -1 0 0 0 1 0 0 0 -1 32523.dat
1 112 225.8655 -84.4615 -119.9984 0 0 -1 -1 0 0 0 1 0 32556.dat
1 112 105.8656 -120.4615 -119.9984 -1 0 0 0 -1 0 0 0 1 32556.dat
1 112 225.8655 -126.4615 -159.9984 0 0 1 -1 0 0 0 -1 0 32556.dat
1 112 225.8655 -126.4615 -79.9984 0 0 1 -1 0 0 0 -1 0 32556.dat
1 112 185.8656 -126.4615 -159.9984 0 0 1 -1 0 0 0 -1 0 32556.dat
1 112 -34.1344 -86.4615 -119.9984 0 0 1 1 0 0 0 1 0 32556.dat
1 112 -34.1344 -103.4615 -85.5984 0 0 1 1 0 0 0 1 0 32556.dat
1 0 105.8656 -133.4615 -81.5984 0 0 1 1 0 0 0 1 0 3673.dat
1 0 125.8656 -133.4615 62.4016 0 0 1 1 0 0 0 1 0 3673.dat
1 0 125.8656 -133.4615 22.4016 0 0 1 1 0 0 0 1 0 3673.dat
1 0 5.8656 -113.4615 -81.5984 0 0 1 1 0 0 0 1 0 3673.dat
1 0 45.8656 -133.4615 -161.5984 0 0 1 1 0 0 0 1 0 3673.dat
1 0 85.8656 -133.4615 -81.5984 0 0 1 1 0 0 0 1 0 3673.dat
1 0 5.8656 -133.4615 -161.5984 0 0 1 1 0 0 0 1 0 3673.dat
1 0 185.8656 -133.4615 -81.5984 0 0 1 1 0 0 0 1 0 3673.dat
1 7 95.8656 -123.4615 -103.5984 1 0 0 0 1 0 0 0 1 3673.dat
1 7 95.8656 -123.4615 -143.5984 1 0 0 0 1 0 0 0 1 3673.dat
1 0 95.8656 -120.4615 -139.9984 -1 0 0 0 -1 0 0 0 1 3673.dat
1 0 95.8656 -120.4615 -99.9984 -1 0 0 0 -1 0 0 0 1 3673.dat
1 0 -34.1344 -116.4615 -159.9984 0 0 1 1 0 0 0 1 0 3673.dat
1 10030 125.8656 -130 -98.0292 0 0 1 1 0 0 0 1 0 3749.dat
1 10030 125.8656 -130 -138.0292 0 0 1 1 0 0 0 1 0 3749.dat
1 10030 -34.1344 -32.4616 -159.9984 0 0 -1 0 -1 0 -1 0 0 3749.dat
1 10030 225.8655 -32.4616 -159.9984 0 0 -1 0 -1 0 -1 0 0 3749.dat
1 10030 -34.1344 -32.4615 -79.9984 0 0 1 0 -1 0 1 0 0 3749.dat
1 10030 225.8655 -32.4615 -79.9984 0 0 1 0 -1 0 1 0 0 3749.dat
1 7 225.8655 -104.4615 -79.9984 -1 0 0 0 1 0 0 0 -1 32526.dat
1 7 -34.1344 -104.4615 -99.9984 1 0 0 0 -1 0 0 0 -1 32140.dat
1 7 -38.1344 -64.4615 -149.9984 0 1 0 0 0 1 1 0 0 32184.dat
1 7 221.8655 -64.4615 -149.9984 0 1 0 0 0 1 1 0 0 32184.dat
1 7 -38.1344 -64.4615 -119.9984 0 1 0 0 0 1 1 0 0 32184.dat
1 7 221.8655 -64.4615 -119.9984 0 1 0 0 0 1 1 0 0 32184.dat
1 7 -38.1344 -64.4615 -89.9984 0 1 0 0 0 1 1 0 0 32184.dat
1 7 221.8655 -64.4615 -89.9984 0 1 0 0 0 1 1 0 0 32184.dat
1 7 125.8656 -122.4615 -121.9984 0 0 1 -1 0 0 0 -1 0 32184.dat
1 7 -14.1344 -64.4615 -119.9984 0 0 1 0 -1 0 1 0 0 3705.dat
1 7 245.8656 -64.4615 -119.9984 0 0 1 0 -1 0 1 0 0 3705.dat
1 7 -54.1344 -64.4615 -119.9984 0 0 1 0 -1 0 1 0 0 3705.dat
1 7 205.8656 -64.4615 -119.9984 0 0 1 0 -1 0 1 0 0 3705.dat
1 24 -34.1344 -34.4615 -151.9984 0 0 1 -1 0 0 0 -1 0 15100.dat
1 24 225.8655 -34.4616 -151.9984 0 0 1 -1 0 0 0 -1 0 15100.dat
1 24 -34.1344 -34.4615 -87.9984 0 0 -1 -1 0 0 0 1 0 15100.dat
1 24 225.8655 -34.4616 -87.9984 0 0 -1 -1 0 0 0 1 0 15100.dat
1 24 -34.1344 -32.4615 -169.9984 -1 0 0 0 -1 0 0 0 1 4185bc01.dat
1 24 225.8655 -32.4615 -169.9984 -1 0 0 0 -1 0 0 0 1 4185bc01.dat
1 24 -34.1344 -32.4615 -69.9984 1 0 0 0 -1 0 0 0 -1 4185bc01.dat
1 24 225.8655 -32.4615 -69.9985 1 0 0 0 -1 0 0 0 -1 4185bc01.dat
1 24 125.8656 -144 -36.0292 -1 0 0 0 1 0 0 0 -1 32525.dat
0 !LEOCAD GROUP END
0 NOFILE
0 FILE Submodel_SyringeGearMover.ldr
0 
0 Name: Submodel_SyringeGearMover.ldr
0 Author: 
1 24 -24 -148 320 0 1 0 0 0 1 1 0 0 41239.dat
1 24 -24 -148 360 0 1 0 0 0 1 1 0 0 41239.dat
1 7 -66 -344 420 0 -1 0 0 0 -1 1 0 0 32526.dat
1 7 14 -344 420 0 -1 0 0 0 -1 1 0 0 32526.dat
1 7 -50 -8 320 1 0 0 0 1 0 0 0 1 32526.dat
1 7 0 -48 340 0 1 0 -1 0 0 0 0 1 32523.dat
1 7 -48 -48 340 0 1 0 -1 0 0 0 0 1 32523.dat
1 7 -72 -48 340 0 1 0 0 0 1 1 0 0 32523.dat
1 7 12 -304.9615 300.6217 0 1 0 -0.5 0 0.866026 0.866026 0 0.5 40490.dat
1 7 -60 -304.9615 300.6217 0 1 0 -0.5 0 0.866026 0.866026 0 0.5 40490.dat
1 7 40 -420 600 0 0 -1 1 0 0 0 -1 0 42003.dat
1 7 -40 -270 440 1 0 0 0 0 -1 0 1 0 42003.dat
1 15 -50 -32 340 0 0 -1 -1 0 0 0 1 0 48989.dat
1 6 -28 -308 400 0 -1 0 0 0 1 -1 0 0 14720.dat
1 23 -20 -456 410 1 0 0 0 1 0 0 0 1 32556.dat
1 23 20 -424 580 1 0 0 0 1 0 0 0 1 32556.dat
1 23 -30 -352 400 1 0 0 0 1 0 0 0 1 32556.dat
1 23 -30 -352 420 1 0 0 0 1 0 0 0 1 32556.dat
1 23 -20 -48 320 1 0 0 0 1 0 0 0 1 32556.dat
1 23 -20 -232 320 1 0 0 0 1 0 0 0 1 32556.dat
1 23 -20 -48 360 1 0 0 0 1 0 0 0 1 32556.dat
1 23 -20 -272 360 1 0 0 0 1 0 0 0 1 32556.dat
1 23 -20 -272 380 1 0 0 0 1 0 0 0 1 32556.dat
1 0 -60 -368 420 1 0 0 0 1 0 0 0 1 3673.dat
1 0 10 -368 420 1 0 0 0 1 0 0 0 1 3673.dat
1 0 -60 -384 420 1 0 0 0 1 0 0 0 1 3673.dat
1 0 -60 -424 440 1 0 0 0 1 0 0 0 1 3673.dat
1 0 10 -424 440 1 0 0 0 1 0 0 0 1 3673.dat
1 0 -60 -424 460 1 0 0 0 1 0 0 0 1 3673.dat
1 0 10 -424 460 1 0 0 0 1 0 0 0 1 3673.dat
1 0 10 -384 420 1 0 0 0 1 0 0 0 1 3673.dat
1 0 -60 -48 340 1 0 0 0 1 0 0 0 1 3673.dat
1 0 -60 -32 340 1 0 0 0 1 0 0 0 1 3673.dat
1 0 -46 -18 360 0 1 0 -1 0 0 0 0 1 3673.dat
1 0 -46 -18 320 0 1 0 -1 0 0 0 0 1 3673.dat
1 5 -30 -272 420 -1 0 0 0 -1 0 0 0 1 3749.dat
1 25 -20 -272 400 1 0 0 0 1 0 0 0 1 4519.dat
1 25 -20 -112 320 1 0 0 0 1 0 0 0 1 4519.dat
1 16 -30 -240 340 0 1 0 -1 0 0 0 0 1 87082.dat
1 6 -8 -272 320 0 -1 0 0 0 -1 1 0 0 32009.dat
1 6 -8 -455 264.5448 0 1 0 1 0 0 0 0 -1 32009.dat
1 6 -40 -455 264.5448 0 1 0 1 0 0 0 0 -1 32009.dat
1 6 -40 -272 320 0 -1 0 0 0 -1 1 0 0 32009.dat
1 4 -24.6935 -185.0536 335.0536 0 0 1 0 1 0 -1 0 0 87989.dat
1 30085 -30 -208 340 1 0 0 0 -1 0 0 0 -1 18860.dat
1 25 -30 -240 340 1 0 0 0 1 0 0 0 1 3706.dat
1 25 -30 -424 420 1 0 0 0 1 0 0 0 1 3706.dat
1 4 30 -240 340 0 0 -1 0 1 0 1 0 0 32123b.dat
1 4 -80 -240 340 0 0 -1 0 1 0 1 0 0 32123b.dat
1 4 -80 -376 260 0 0 -1 0 1 0 1 0 0 32123b.dat
1 4 -90 -376 260 0 0 -1 0 1 0 1 0 0 32123b.dat
1 4 30 -376 260 0 0 -1 0 1 0 1 0 0 32123b.dat
1 4 40 -376 260 0 0 -1 0 1 0 1 0 0 32123b.dat
1 4 -80 -424 420 0 0 -1 0 1 0 1 0 0 32123b.dat
1 4 -60 -424 500 0 0 -1 0 1 0 1 0 0 32123b.dat
1 4 -60 -424 540 0 0 -1 0 1 0 1 0 0 32123b.dat
1 4 10 -424 500 0 0 -1 0 1 0 1 0 0 32123b.dat
1 4 10 -424 540 0 0 -1 0 1 0 1 0 0 32123b.dat
1 4 30 -424 420 0 0 -1 0 1 0 1 0 0 32123b.dat
1 30085 -20 -424 420 0 0 1 0 1 0 -1 0 0 3649.dat
1 30085 -20 -424 500 0 0 -1 0 1 0 1 0 0 3648b.dat
1 7 -48 -388 420 0 1 0 0 0 1 1 0 0 60484.dat
1 7 -8 -388 420 0 1 0 0 0 1 1 0 0 60484.dat
1 7 -44 -424 500 0 1 0 -1 0 0 0 0 1 40490.dat
1 7 -4 -424 500 0 1 0 -1 0 0 0 0 1 40490.dat
1 30085 -20 -424 540 0 0 -1 0 1 0 1 0 0 10928.dat
1 25 -30 -376 260 1 0 0 0 1 0 0 0 1 44294.dat
1 25 -20 -424 500 1 0 0 0 1 0 0 0 1 3705.dat
1 25 -20 -424 540 1 0 0 0 1 0 0 0 1 3705.dat
1 7 50 -422 563.45 0 0 1 -1 0 0 0 -1 0 2985c01.dat
0 NOFILE
0 FILE Submodel_Parts.ldr
0 
0 Name: Submodel_Parts.ldr
0 Author: 
1 7 -260 -8 -110 1 0 0 0 1 0 0 0 1 32316.dat
1 7 -220 -8 -70 1 0 0 0 1 0 0 0 1 40490.dat
1 4 -90 -8 120 1 0 0 0 1 0 0 0 1 32123b.dat
1 4 -90 -8 80 1 0 0 0 1 0 0 0 1 3713.dat
1 7 -100 -32 30 1 0 0 0 1 0 0 0 1 6536.dat
1 7 -90 -32 -30 1 0 0 0 1 0 0 0 1 42003.dat
1 15 -90 -32 -100 1 0 0 0 1 0 0 0 1 48989.dat
1 7 -90 -32 -60 1 0 0 0 1 0 0 0 1 32184.dat
1 30085 90 -16 -450 1 0 0 0 1 0 0 0 1 10928.dat
1 30085 60 -16 -450 1 0 0 0 1 0 0 0 1 6589.dat
1 25 -20 -8 -480 1 0 0 0 1 0 0 0 1 3706.dat
1 23 -120 -8 180 1 0 0 0 1 0 0 0 1 32556.dat
1 15 -130 -32 -110 1 0 0 0 1 0 0 0 1 49130.dat
1 0 -110 -8 160 1 0 0 0 1 0 0 0 1 3673.dat
1 5 -110 -8 140 1 0 0 0 1 0 0 0 1 3749.dat
1 7 -240 -8 -90 1 0 0 0 1 0 0 0 1 32524.dat
1 7 -280 -8 -130 1 0 0 0 1 0 0 0 1 32523.dat
1 7 -160 -8 -10 1 0 0 0 1 0 0 0 1 32278.dat
1 25 10 -8 -420 1 0 0 0 1 0 0 0 1 4519.dat
1 25 0 -8 -440 1 0 0 0 1 0 0 0 1 3705.dat
1 25 -10 -8 -460 1 0 0 0 1 0 0 0 1 32073.dat
1 25 -30 -8 -510 1 0 0 0 1 0 0 0 1 44294.dat
1 7 -280 -8 170 1 0 0 0 1 0 0 0 1 60484.dat
1 120 -150 -8 390 1 0 0 0 1 0 0 0 1 64179.dat
1 7 -330 -8 -80 1 0 0 0 1 0 0 0 1 6612.dat
1 7 -420 -8 90 1 0 0 0 1 0 0 0 1 32526.dat
1 7 -380 -8 80 1 0 0 0 1 0 0 0 1 32140.dat
1 24 -120 -8 220 1 0 0 0 1 0 0 0 1 15100.dat
1 16 -120 -8 200 1 0 0 0 1 0 0 0 1 87082.dat
1 24 210 -40 -400 1 0 0 0 1 0 0 0 1 4185bc01.dat
1 24 -200 -8 -50 1 0 0 0 1 0 0 0 1 32525.dat
1 24 -180 -8 -30 1 0 0 0 1 0 0 0 1 41239.dat
1 6 -100 -8 -200 1 0 0 0 1 0 0 0 1 14720.dat
1 6 -530 -8 480 1 0 0 0 1 0 0 0 1 32009.dat
1 4 205.3065 -8 60.1072 0 0 1 -1 0 0 0 -1 0 87989.dat
1 30085 -80 -24 0 1 0 0 0 1 0 0 0 1 18860.dat
1 30085 110 -56 -390 1 0 0 0 1 0 0 0 1 3649.dat
1 30085 30 -32 -390 1 0 0 0 1 0 0 0 1 3648b.dat
1 120 200 -14 139.45 1 0 0 0 -1 0 0 0 -1 15458.dat
1 120 -540 -8 -130 1 0 0 0 1 0 0 0 1 60479.dat
1 120 -630 -8 -90 1 0 0 0 1 0 0 0 1 94148.dat
1 120 -570 -8 -100 1 0 0 0 1 0 0 0 1 6225.dat
1 326 150 -8 300 1 0 0 0 1 0 0 0 1 64782.dat
1 4 -120 -8 250 1 0 0 0 1 0 0 0 1 32054.dat
1 0 500 -8 300 1 0 0 0 1 0 0 0 1 57518.dat
1 0 500 -8 230 1 0 0 0 1 0 0 0 1 3711.dat
1 0 510 -48 420 1 0 0 0 1 0 0 0 1 57519.dat
1 25 -50 -8 -560 1 0 0 0 1 0 0 0 1 60485.dat
1 25 -50 -8 -600 1 0 0 0 1 0 0 0 1 3737.dat
1 25 -40 -8 -530 1 0 0 0 1 0 0 0 1 3707.dat
1 25 20 -8 -410 1 0 0 0 1 0 0 0 1 3704.dat
1 120 -138.6935 -8 272.1073 0 0 -1 0 -1 0 -1 0 0 92906.dat
0 NOFILE
0 FILE Submodel_FrameTop.ldr
0 
0 Name: Submodel_FrameTop.ldr
0 Author: 
1 7 -21.1677 -346 16.61 -1 0 0 0 0 1 0 1 0 32278.dat
1 7 298.8322 -346 16.61 -1 0 0 0 0 1 0 1 0 32278.dat
1 6 296.8322 -502 54.61 0 0 1 1 0 0 0 1 0 32009.dat
1 120 199.3822 -526 152.61 0 0 -1 0 1 0 1 0 0 15458.dat
1 15 42.8322 -504 232.61 0 0 1 0 -1 0 1 0 0 49130.dat
1 15 218.8322 -504 232.61 0 1 0 0 0 1 1 0 0 49130.dat
1 30085 218.8322 -544 12.61 1 0 0 0 1 0 0 0 1 3649.dat
1 7 188.8322 -576 -5.39 0 0 -1 1 0 0 0 -1 0 32316.dat
1 7 148.8322 -512 -25.39 -1 0 0 0 0 -1 0 -1 0 32524.dat
1 7 38.8322 -506 54.61 0 0 -1 1 0 0 0 -1 0 32524.dat
1 7 38.8322 -504 70.61 0 0 -1 1 0 0 0 -1 0 32523.dat
1 7 298.8322 -444 38.61 -1 0 0 0 0 -1 0 -1 0 32523.dat
1 7 198.8322 -504 70.61 0 0 -1 1 0 0 0 -1 0 32523.dat
1 6 114.8322 -564 72.61 0 1 0 0 0 1 1 0 0 14720.dat
1 7 88.8322 -624 32.61 0 0 1 -1 0 0 0 -1 0 32184.dat
1 120 158.8322 -504 152.61 0 0 -1 0 1 0 1 0 0 64179.dat
1 120 228.8322 -516 142.61 0 1 0 0 0 1 1 0 0 94148.dat
1 24 118.8322 -504 92.61 0 0 -1 -1 0 0 0 1 0 32525.dat
1 7 78.8323 -504 72.61 0 0 -1 0 -1 0 -1 0 0 6536.dat
1 7 158.8322 -504 72.61 0 0 -1 0 -1 0 -1 0 0 6536.dat
1 7 96.8322 -522 112.61 0 1 0 1 0 0 0 0 -1 32526.dat
1 7 136.8322 -522 112.61 0 1 0 1 0 0 0 0 -1 32526.dat
1 4 84.8323 -504 8.61 0 -1 0 0 0 -1 1 0 0 32123b.dat
1 4 84.8323 -544 8.61 0 -1 0 0 0 -1 1 0 0 32123b.dat
1 4 92.8322 -754 18.61 0 -1 0 0 0 -1 1 0 0 32123b.dat
1 4 220.8322 -544 -1.39 0 -1 0 -1 0 0 0 0 -1 32123b.dat
1 4 220.8322 -544 48.61 0 -1 0 -1 0 0 0 0 -1 32123b.dat
1 23 38.8323 -504 72.61 0 0 -1 0 1 0 1 0 0 32556.dat
1 23 58.8322 -504 72.61 0 0 -1 0 1 0 1 0 0 32556.dat
1 23 178.8322 -504 72.61 0 0 -1 0 1 0 1 0 0 32556.dat
1 23 218.8322 -504 72.61 0 0 -1 0 1 0 1 0 0 32556.dat
1 23 198.8322 -504 52.61 0 0 -1 0 1 0 1 0 0 32556.dat
1 23 118.8323 -520 52.61 -1 0 0 0 1 0 0 0 -1 32556.dat
1 23 118.8322 -520 32.61 -1 0 0 0 1 0 0 0 -1 32556.dat
1 23 298.8322 -448 32.61 0 0 -1 0 1 0 1 0 0 32556.dat
1 23 298.8322 -424 32.61 0 0 -1 0 1 0 1 0 0 32556.dat
1 23 88.8323 -520 -7.39 -1 0 0 0 1 0 0 0 -1 32556.dat
1 23 118.8322 -504 32.61 -1 0 0 0 1 0 0 0 -1 32556.dat
1 23 118.8322 -520 92.61 -1 0 0 0 1 0 0 0 -1 32556.dat
1 0 28.8323 -272 232.6099 -1 0 0 0 1 0 0 0 -1 3673.dat
1 0 248.8322 -264 232.6099 -1 0 0 0 1 0 0 0 -1 3673.dat
1 0 88.8322 -520 72.61 -1 0 0 0 1 0 0 0 -1 3673.dat
1 0 98.8322 -608 52.61 -1 0 0 0 1 0 0 0 -1 3673.dat
1 0 238.8322 -504 42.61 0 0 1 0 1 0 -1 0 0 3673.dat
1 0 158.8322 -504 102.61 0 0 1 0 1 0 -1 0 0 3673.dat
1 0 198.8322 -504 102.61 0 0 1 0 1 0 -1 0 0 3673.dat
1 0 208.8322 -576 2.61 0 0 1 0 1 0 -1 0 0 3673.dat
1 0 -1.1678 -504 42.61 0 0 1 0 1 0 -1 0 0 3673.dat
1 0 -21.1677 -488 22.61 0 0 1 0 1 0 -1 0 0 3673.dat
1 0 -21.1677 -464 22.61 0 0 1 0 1 0 -1 0 0 3673.dat
1 0 -21.1677 -504 42.61 0 0 1 0 1 0 -1 0 0 3673.dat
1 0 148.8322 -576 -17.39 0 0 1 0 1 0 -1 0 0 3673.dat
1 0 228.8322 -576 2.61 0 0 1 0 1 0 -1 0 0 3673.dat
1 0 118.8322 -504 102.61 0 0 1 0 1 0 -1 0 0 3673.dat
1 0 118.8322 -504 202.61 0 0 1 0 1 0 -1 0 0 3673.dat
1 0 82.8322 -504 222.61 0 0 1 0 1 0 -1 0 0 3673.dat
1 0 218.8322 -504 222.61 0 0 1 0 1 0 -1 0 0 3673.dat
1 0 42.8323 -504 222.61 0 0 1 0 1 0 -1 0 0 3673.dat
1 0 178.8322 -504 222.61 0 0 1 0 1 0 -1 0 0 3673.dat
1 0 158.8322 -504 202.61 0 0 1 0 1 0 -1 0 0 3673.dat
1 0 198.8322 -504 202.61 0 0 1 0 1 0 -1 0 0 3673.dat
1 0 148.8322 -520 72.61 -1 0 0 0 1 0 0 0 -1 3673.dat
1 5 148.8322 -456 -37.39 0 0 -1 0 -1 0 -1 0 0 3749.dat
1 5 -21.1677 -448 22.61 0 0 1 0 -1 0 1 0 0 3749.dat
1 5 98.8322 -528 -27.39 1 0 0 0 1 0 0 0 1 3749.dat
1 16 88.8322 -528 12.61 1 0 0 0 1 0 0 0 1 87082.dat
1 7 114.8322 -524 -27.39 0 -1 0 1 0 0 0 0 1 32140.dat
1 7 218.8322 -544 30.61 -1 0 0 0 0 1 0 1 0 60484.dat
0 !LEOCAD PIECE PIVOT  0 -8 0 1 0 0 0 1 0 0 0 1
1 25 78.8323 -504 72.61 0 0 -1 0 1 0 1 0 0 4519.dat
0 !LEOCAD PIECE PIVOT  0 -8 0 1 0 0 0 1 0 0 0 1
1 25 158.8322 -504 52.61 0 0 -1 0 1 0 1 0 0 4519.dat
1 7 103.8322 -352 -52.39 0 1 0 1 0 0 0 0 -1 42003.dat
1 7 103.8322 -372 -52.39 0 1 0 1 0 0 0 0 -1 42003.dat
1 7 88.8322 -608 32.61 0 0 1 1 0 0 0 1 0 42003.dat
1 7 68.8323 -526 -11.39 0 0 -1 -1 0 0 0 1 0 42003.dat
1 7 88.8322 -526 -27.39 0 0 -1 -1 0 0 0 1 0 42003.dat
1 25 88.8323 -562 10.61 0 0 -1 -1 0 0 0 1 0 3706.dat
1 120 94.8322 -618 32.61 0 1 0 1 0 0 0 0 -1 6225.dat
1 120 78.8322 -618 32.61 0 -1 0 1 0 0 0 0 1 6225.dat
1 25 88.8322 -690 16.61 0 0 -1 1 0 0 0 -1 0 44294.dat
1 25 218.8322 -544 42.61 0 0 -1 0 1 0 1 0 0 32073.dat
1 7 191.3822 -550 132.61 0 1 0 -1 0 0 0 0 1 2985c01.dat
1 4 218.8322 -544 82.61 1 0 0 0 1 0 0 0 1 3713.dat
1 120 113.8322 -364 -48.39 -1 0 0 0 0 1 0 1 0 94148.dat
1 120 113.8322 -364 -56.39 -1 0 0 0 0 -1 0 -1 0 94148.dat
1 24 24.8323 -390 232.61 0 1 0 0 0 1 1 0 0 41239.dat
1 24 240.8322 -382 232.6099 0 1 0 0 0 1 1 0 0 41239.dat
1 4 38.8323 -288 232.61 -1 0 0 0 1 0 0 0 -1 32054.dat
1 4 238.8322 -280 232.61 1 0 0 0 1 0 0 0 1 32054.dat
1 7 -21.1677 -444 38.61 1 0 0 0 0 -1 0 1 0 32140.dat
1 24 118.8322 -504 212.61 0 0 -1 -1 0 0 0 1 0 32525.dat
1 25 86 -448 -50 0 1 0 -1 0 0 0 0 1 60485.dat
1 25 86 -268 -50 0 1 0 -1 0 0 0 0 1 60485.dat
0 NOFILE
0 FILE Submodel_FrameBottom.ldr
0 
0 Name: Submodel_FrameBottom.ldr
0 Author: 
0 !LEOCAD GROUP BEGIN Group #1
1 7 240 -148 226 0 -1 0 0 0 -1 1 0 0 32278.dat
1 7 2 -148 226 0 -1 0 0 0 -1 1 0 0 32278.dat
1 7 80 -168 -10 0 0 1 1 0 0 0 1 0 32278.dat
1 24 -20 -128 -30 1 0 0 0 0 -1 0 1 0 41239.dat
1 24 300 -128 -30 1 0 0 0 0 -1 0 1 0 41239.dat
1 120 100 -48 174 0 0 -1 1 0 0 0 -1 0 64179.dat
1 120 100 -48 294 0 0 -1 1 0 0 0 -1 0 64179.dat
1 7 -40 -171 169 0 -1 0 0 0 1 -1 0 0 42003.dat
1 7 195 -123 254 -1 0 0 0 0 1 0 1 0 42003.dat
1 7 -40 -171 189 0 -1 0 0 0 1 -1 0 0 42003.dat
1 7 215 -123 254 -1 0 0 0 0 1 0 1 0 42003.dat
1 120 -50 -175 181 1 0 0 0 -1 0 0 0 -1 94148.dat
1 120 207 -127 264 0 0 -1 0 -1 0 -1 0 0 94148.dat
1 120 176 -61 281 0 1 0 -1 0 0 0 0 1 94148.dat
1 120 176 -61 191 0 1 0 -1 0 0 0 0 1 94148.dat
1 120 -50 -167 181 1 0 0 0 1 0 0 0 1 94148.dat
1 120 207 -119 264 0 0 1 0 1 0 -1 0 0 94148.dat
1 15 262 -144 190 0 -1 0 1 0 0 0 0 1 49130.dat
1 15 262 -104 190 0 -1 0 1 0 0 0 0 1 49130.dat
1 30085 300 -120 150 1 0 0 0 1 0 0 0 1 10928.dat
1 30085 300 -120 210 1 0 0 0 1 0 0 0 1 6589.dat
1 30085 280 -120 230 0 0 1 0 1 0 -1 0 0 6589.dat
1 25 300 -120 180 0 0 1 0 1 0 -1 0 0 3705.dat
1 25 250 -120 230 -1 0 0 0 1 0 0 0 -1 3705.dat
1 4 300 -120 200 1 0 0 0 1 0 0 0 1 32123b.dat
1 4 300 -64 20 1 0 0 0 1 0 0 0 1 32123b.dat
1 4 270 -120 230 0 0 1 0 1 0 -1 0 0 32123b.dat
1 4 40 -64 30 1 0 0 0 1 0 0 0 1 32123b.dat
1 4 300 -120 190 1 0 0 0 1 0 0 0 1 3713.dat
1 4 300 -64 70 1 0 0 0 1 0 0 0 1 3713.dat
1 4 260 -120 230 0 0 1 0 1 0 -1 0 0 3713.dat
1 7 84 -188 -50 0 1 0 -1 0 0 0 0 1 6536.dat
1 7 -18 -168 230 1 0 0 0 1 0 0 0 1 32184.dat
1 7 142 -104 280 1 0 0 0 1 0 0 0 1 32184.dat
1 7 142 -104 200 1 0 0 0 1 0 0 0 1 32184.dat
1 23 -10 -8 230 1 0 0 0 1 0 0 0 1 32556.dat
1 23 240 -8 230 -1 0 0 0 1 0 0 0 -1 32556.dat
1 23 300 -248 -10 0 0 1 0 1 0 -1 0 0 32556.dat
1 23 -20 -248 -10 0 0 1 0 1 0 -1 0 0 32556.dat
1 23 300 -208 -10 0 0 1 0 1 0 -1 0 0 32556.dat
1 23 300 -104 -10 0 0 1 0 1 0 -1 0 0 32556.dat
1 23 300 -88 -10 0 0 1 0 1 0 -1 0 0 32556.dat
1 23 -20 -208 -10 0 0 1 0 1 0 -1 0 0 32556.dat
1 23 60 -104 -10 0 0 1 0 1 0 -1 0 0 32556.dat
1 0 40 -8 160 0 0 1 0 1 0 -1 0 0 3673.dat
1 0 40 -88 160 0 0 1 0 1 0 -1 0 0 3673.dat
1 0 80 -8 180 0 0 1 0 1 0 -1 0 0 3673.dat
1 0 80 -8 280 0 0 1 0 1 0 -1 0 0 3673.dat
1 0 120 -8 180 0 0 1 0 1 0 -1 0 0 3673.dat
1 0 120 -8 280 0 0 1 0 1 0 -1 0 0 3673.dat
1 0 160 -8 180 0 0 1 0 1 0 -1 0 0 3673.dat
1 0 160 -8 280 0 0 1 0 1 0 -1 0 0 3673.dat
1 0 180 -168 -20 0 0 1 0 1 0 -1 0 0 3673.dat
1 0 80 -168 -20 0 0 1 0 1 0 -1 0 0 3673.dat
1 0 80 -104 -20 0 0 1 0 1 0 -1 0 0 3673.dat
1 0 220 -104 -20 0 0 1 0 1 0 -1 0 0 3673.dat
1 0 240 -104 -20 0 0 1 0 1 0 -1 0 0 3673.dat
1 0 260 -104 -20 0 0 1 0 1 0 -1 0 0 3673.dat
1 0 20 -104 0 0 0 1 0 1 0 -1 0 0 3673.dat
1 0 -20 -8 -40 0 0 1 0 1 0 -1 0 0 3673.dat
1 0 -20 -48 -40 0 0 1 0 1 0 -1 0 0 3673.dat
1 0 100 -168 -20 0 0 1 0 1 0 -1 0 0 3673.dat
1 0 100 -184 -40 0 0 1 0 1 0 -1 0 0 3673.dat
1 0 200 -168 -20 0 0 1 0 1 0 -1 0 0 3673.dat
1 0 220 -168 -20 0 0 1 0 1 0 -1 0 0 3673.dat
1 0 260 -168 -20 0 0 1 0 1 0 -1 0 0 3673.dat
1 0 300 -152 -20 0 0 1 0 1 0 -1 0 0 3673.dat
1 5 150 -88 280 -1 0 0 0 1 0 0 0 -1 3749.dat
1 5 150 -88 200 -1 0 0 0 1 0 0 0 -1 3749.dat
1 5 150 -120 280 -1 0 0 0 1 0 0 0 -1 3749.dat
1 5 150 -120 200 -1 0 0 0 1 0 0 0 -1 3749.dat
1 5 240 -168 -20 0 0 -1 0 1 0 1 0 0 3749.dat
1 5 40 -168 -20 0 0 1 0 1 0 -1 0 0 3749.dat
1 7 40 -48 154 1 0 0 0 0 1 0 -1 0 32316.dat
1 7 163 -84 277 0 1 0 0 0 1 1 0 0 32316.dat
1 7 163 -84 197 0 1 0 0 0 1 1 0 0 32316.dat
1 7 220 -170 -30 0 0 1 -1 0 0 0 -1 0 32316.dat
1 7 300 -122 170 1 0 0 0 0 1 0 -1 0 32524.dat
1 7 20 -104 -10 0 0 -1 1 0 0 0 -1 0 32524.dat
1 24 160 -104 -26 0 0 -1 -1 0 0 0 1 0 32525.dat
1 326 120 -8 230 1 0 0 0 1 0 0 0 1 64782.dat
1 7 40 -60 10 1 0 0 0 0 -1 0 1 0 60484.dat
1 7 -20 -48 -50 1 0 0 0 0 1 0 -1 0 60484.dat
1 7 220 -104 -6 0 0 1 1 0 0 0 1 0 32526.dat
1 7 240 -168 -8 0 0 1 1 0 0 0 1 0 32140.dat
1 7 40 -168 -32 0 0 1 -1 0 0 0 -1 0 32140.dat
1 7 300 -228 -10 1 0 0 0 0 -1 0 1 0 32523.dat
1 7 -20 -228 -10 1 0 0 0 0 -1 0 1 0 32523.dat
1 4 -18 -168 230 0 0 -1 0 1 0 1 0 0 32054.dat
1 4 300 -168 170 0 0 -1 0 1 0 1 0 0 32054.dat
1 4 300 -168 -10 0 0 1 0 1 0 -1 0 0 32054.dat
1 4 -20 -168 -10 0 0 1 0 1 0 -1 0 0 32054.dat
1 0 310 -112 50 0 0 1 0 1 0 -1 0 0 57518.dat
1 0 280 -112 50 0 0 1 0 1 0 -1 0 0 57518.dat
1 0 250 -112 50 0 0 1 0 1 0 -1 0 0 57518.dat
1 0 220 -112 50 0 0 1 0 1 0 -1 0 0 57518.dat
1 0 190 -112 50 0 0 1 0 1 0 -1 0 0 57518.dat
1 0 160 -112 50 0 0 1 0 1 0 -1 0 0 57518.dat
1 0 130 -112 50 0 0 1 0 1 0 -1 0 0 57518.dat
1 0 100 -112 50 0 0 1 0 1 0 -1 0 0 57518.dat
1 0 70 -112 50 0 0 1 0 1 0 -1 0 0 57518.dat
1 0 40 -112 50 0 0 1 0 1 0 -1 0 0 57518.dat
1 0 10 -112 50 0 0.866025 0.5 0 0.5 -0.866025 -1 0 0 57518.dat
1 0 -5 -86.0192 50 0 1 0 0 0 -1 -1 0 0 57518.dat
1 0 -5 -56.0192 50 0 0.866025 -0.5 0 -0.5 -0.866025 -1 0 0 57518.dat
1 0 280 -8 50 0 0 -1 0 -1 0 -1 0 0 57518.dat
1 0 250 -8 50 0 0 -1 0 -1 0 -1 0 0 57518.dat
1 0 220 -8 50 0 0 -1 0 -1 0 -1 0 0 57518.dat
1 0 190 -8 50 0 0 -1 0 -1 0 -1 0 0 57518.dat
1 0 160 -8 50 0 0 -1 0 -1 0 -1 0 0 57518.dat
1 0 130 -8 50 0 0 -1 0 -1 0 -1 0 0 57518.dat
1 0 100 -8 50 0 0 -1 0 -1 0 -1 0 0 57518.dat
1 0 70 -8 50 0 0 -1 0 -1 0 -1 0 0 57518.dat
1 0 40 -8 50 0 0 -1 0 -1 0 -1 0 0 57518.dat
1 0 10 -8 50 0 0 -1 0 -1 0 -1 0 0 57518.dat
1 0 2 -28.7846 50 0 0.5 -0.866025 0 -0.866025 -0.5 -1 0 0 57518.dat
1 0 312.6795 -6 50 0 -0.5 -0.866025 0 -0.866025 0.5 -1 0 0 57518.dat
1 0 359.641 -71.3013 50 0 -0.866025 0.5 0 0.5 0.866025 -1 0 0 57518.dat
1 0 351.641 -41.3013 50 0 -1 0 0 0 1 -1 0 0 57518.dat
1 0 339.5166 -18.3013 50 0 -0.866025 -0.5 0 -0.5 0.866025 -1 0 0 57518.dat
1 0 340 -96 50 0 -0.5 0.866025 0 0.866025 0.5 -1 0 0 57518.dat
1 0 40 -64 50 1 0 0 0 1 0 0 0 1 57519.dat
1 0 300 -64 50 1 0 0 0 1 0 0 0 1 57519.dat
1 25 40 -64 70 0 0 1 0 1 0 -1 0 0 60485.dat
1 25 -20 -168 90 0 0 1 0 1 0 -1 0 0 60485.dat
1 25 300 -64 90 0 0 1 0 1 0 -1 0 0 60485.dat
1 30085 300 -64 150 1 0 0 0 1 0 0 0 1 3649.dat
1 25 300 -168 80 0 0 -1 0 1 0 1 0 0 3707.dat
1 25 -20 -168 200 0 0 -1 0 1 0 1 0 0 3704.dat
1 120 161.3065 -120 232.1073 0 0 -1 0 -1 0 -1 0 0 92906.dat
1 120 124.7564 -92 232.1072 0 0 -1 0 -1 0 -1 0 0 2985c01.dat
1 7 300 -82 10 1 0 0 0 0 -1 0 1 0 32523.dat
0 !LEOCAD GROUP END
0 NOFILE
